<?xml version="1.0" encoding="UTF-8"?>
<svg width="185px" height="180px" viewBox="0 0 185 180" version="1.1" xmlns="http://www.w3.org/2000/svg" xmlns:xlink="http://www.w3.org/1999/xlink">
    <title>GitHub-Logo.wine</title>
    <g id="Page-1" stroke="none" stroke-width="1" fill="none" fill-rule="evenodd">
        <g id="GitHub-Logo.wine" transform="translate(-0, 0)" fill="#000000" fill-rule="nonzero">
            <path d="M61.7484302,144.935737 C61.7484302,145.680142 60.892364,146.275667 59.8129761,146.275667 C58.5847072,146.387327 57.7286409,145.791803 57.7286409,144.935737 C57.7286409,144.191331 58.5847072,143.595807 59.664095,143.595807 C60.7807032,143.484146 61.7484302,144.079671 61.7484302,144.935737 Z M50.1729258,143.260825 C49.9123839,144.00523 50.6567894,144.861296 51.7733975,145.084618 C52.7411246,145.456821 53.8577327,145.084618 54.0810543,144.340212 C54.304376,143.595807 53.5971908,142.739741 52.4805827,142.404758 C51.5128556,142.144216 50.4334677,142.516419 50.1729258,143.260825 Z M66.6242858,142.62808 C65.5448979,142.888622 64.8004925,143.595807 64.9121533,144.451873 C65.0238141,145.196279 65.9915412,145.680142 67.1081493,145.4196 C68.1875372,145.159058 68.9319426,144.451873 68.8202818,143.707468 C68.708621,143.000283 67.7036736,142.516419 66.6242858,142.62808 Z M91.1152244,0 C39.4907079,0 0,39.1929458 0,90.8174622 C0,132.094743 25.9797494,167.416781 63.08836,179.848351 C67.8525547,180.704418 69.5274669,177.764016 69.5274669,175.344698 C69.5274669,173.037042 69.4158061,160.307709 69.4158061,152.491452 C69.4158061,152.491452 43.3616162,158.074493 37.8902363,141.399811 C37.8902363,141.399811 33.6471253,130.568712 27.5430008,127.777192 C27.5430008,127.777192 19.0195587,121.933609 28.1385252,122.04527 C28.1385252,122.04527 37.4063727,122.789675 42.5055499,131.6481 C50.6567894,146.015125 64.316629,141.883675 69.6391278,139.427137 C70.495194,133.471893 72.9145116,129.340443 75.5943712,126.883905 C54.7882395,124.576248 33.7960064,121.561406 33.7960064,85.7555053 C33.7960064,75.5199306 36.624747,70.3835332 42.5799905,63.8327654 C41.6122634,61.4134478 38.4485403,51.4384151 43.5477175,38.5602012 C51.3267542,36.1408835 69.2297048,48.6096744 69.2297048,48.6096744 C76.6737591,46.5253392 84.6761174,45.4459514 92.6040352,45.4459514 C100.531953,45.4459514 108.534311,46.5253392 115.978366,48.6096744 C115.978366,48.6096744 133.881316,36.1036632 141.660353,38.5602012 C146.75953,51.4756353 143.595807,61.4134478 142.62808,63.8327654 C148.583323,70.4207535 152.23091,75.5571509 152.23091,85.7555053 C152.23091,121.673067 130.30817,124.539028 109.502038,126.883905 C112.926303,129.824307 115.829485,135.407347 115.829485,144.154111 C115.829485,156.697343 115.717824,172.218196 115.717824,175.270258 C115.717824,177.689576 117.429956,180.629977 122.156931,179.773911 C159.377202,167.416781 184.612546,132.094743 184.612546,90.8174622 C184.612546,39.1929458 142.739741,0 91.1152244,0 Z M36.1781038,128.372716 C35.6942403,128.744919 35.8059011,129.600985 36.4386457,130.30817 C37.03417,130.903694 37.8902363,131.164236 38.3740998,130.680373 C38.8579633,130.30817 38.7463025,129.452104 38.1135579,128.744919 C37.5180336,128.149394 36.6619673,127.888852 36.1781038,128.372716 Z M32.1583145,125.357874 C31.8977726,125.841738 32.2699753,126.437262 33.0143807,126.809465 C33.6099051,127.181667 34.3543105,127.070007 34.6148524,126.548923 C34.8753943,126.065059 34.5031916,125.469535 33.7587861,125.097332 C33.0143807,124.87401 32.4188564,124.985671 32.1583145,125.357874 Z M44.2176824,138.608291 C43.6221581,139.092154 43.8454797,140.208762 44.7015459,140.915947 C45.5576122,141.772014 46.637,141.883675 47.1208636,141.28815 C47.6047271,140.804287 47.3814055,139.687679 46.637,138.980493 C45.8181541,138.124427 44.7015459,138.012766 44.2176824,138.608291 Z M39.9745715,133.136911 C39.3790471,133.509113 39.3790471,134.476841 39.9745715,135.332907 C40.5700958,136.188973 41.5750431,136.561176 42.0589067,136.188973 C42.654431,135.705109 42.654431,134.737382 42.0589067,133.881316 C41.5378229,133.02525 40.5700958,132.653047 39.9745715,133.136911 Z" id="Shape"></path>
        </g>
    </g>
</svg>