<?xml version="1.0" encoding="UTF-8"?>
<svg width="556px" height="256px" viewBox="0 0 556 256" version="1.1" xmlns="http://www.w3.org/2000/svg" xmlns:xlink="http://www.w3.org/1999/xlink">
    <title>icons</title>
    <g id="Page-1" stroke="none" stroke-width="1" fill="none" fill-rule="evenodd">
        <g id="icons" fill-rule="nonzero">
            <g id="Group">
                <rect id="Rectangle" fill="#F0DB4F" x="0" y="0" width="256" height="256" rx="60"></rect>
                <path d="M67.3113,213.932 L86.9027,202.076 C90.6821,208.777 94.1202,214.447 102.367,214.447 C110.272,214.447 115.256,211.355 115.256,199.327 L115.256,117.529 L139.314,117.529 L139.314,199.667 C139.314,224.584 124.708,235.926 103.398,235.926 C84.1533,235.926 72.9819,225.959 67.3113,213.93" id="Path" fill="#323330"></path>
                <path d="M152.381,211.354 L171.969,200.013 C177.126,208.434 183.828,214.62 195.684,214.62 C205.653,214.62 212.009,209.636 212.009,202.762 C212.009,194.514 205.479,191.592 194.481,186.782 L188.468,184.203 C171.111,176.815 159.597,167.535 159.597,147.945 C159.597,129.901 173.345,116.153 194.826,116.153 C210.12,116.153 221.118,121.481 229.022,135.4 L210.291,147.429 C206.166,140.04 201.7,137.119 194.826,137.119 C187.78,137.119 183.312,141.587 183.312,147.429 C183.312,154.646 187.78,157.568 198.09,162.037 L204.104,164.614 C224.553,173.379 236.067,182.313 236.067,202.418 C236.067,224.072 219.055,235.928 196.2,235.928 C173.861,235.928 159.426,225.274 152.381,211.354" id="Path" fill="#323330"></path>
            </g>
            <g id="Group" transform="translate(300, 0)">
                <rect id="Rectangle" fill="#007ACC" x="0" y="0" width="256" height="256" rx="60"></rect>
                <path d="M56.6112,128.849 L56.5299,139.333 L73.1902,139.333 L89.8505,139.333 L89.8505,186.673 L89.8505,234.012 L101.635,234.012 L113.419,234.012 L113.419,186.673 L113.419,139.333 L130.079,139.333 L146.739,139.333 L146.739,129.052 C146.739,123.363 146.618,118.609 146.455,118.487 C146.333,118.325 126.056,118.243 101.472,118.284 L56.7331,118.406 L56.6112,128.849 Z" id="Path" fill="#FFFFFF"></path>
                <path d="M206.567,118.108 C213.068,119.734 218.026,122.619 222.577,127.332 C224.934,129.852 228.428,134.444 228.713,135.541 C228.794,135.866 217.66,143.343 210.915,147.528 C210.671,147.691 209.695,146.634 208.598,145.009 C205.307,140.214 201.853,138.141 196.57,137.776 C188.809,137.247 183.811,141.311 183.852,148.097 C183.852,150.088 184.136,151.266 184.949,152.892 C186.655,156.427 189.825,158.54 199.781,162.847 C218.107,170.731 225.949,175.932 230.826,183.327 C236.271,191.576 237.49,204.742 233.792,214.535 C229.729,225.181 219.651,232.414 205.469,234.812 C201.081,235.584 190.678,235.462 185.965,234.609 C175.684,232.78 165.932,227.701 159.918,221.037 C157.561,218.436 152.969,211.65 153.254,211.162 C153.375,211 154.432,210.35 155.61,209.659 C156.748,209.009 161.056,206.53 165.119,204.173 L172.474,199.906 L174.018,202.182 C176.172,205.473 180.885,209.984 183.73,211.487 C191.897,215.795 203.113,215.185 208.639,210.228 C210.996,208.074 211.971,205.839 211.971,202.548 C211.971,199.581 211.605,198.281 210.061,196.046 C208.07,193.202 204.007,190.804 192.466,185.806 C179.26,180.117 173.571,176.582 168.37,170.974 C165.363,167.724 162.518,162.522 161.34,158.174 C160.365,154.558 160.121,145.496 160.893,141.839 C163.615,129.08 173.246,120.181 187.143,117.539 C191.654,116.686 202.137,117.011 206.567,118.108 Z" id="Path" fill="#FFFFFF"></path>
            </g>
        </g>
    </g>
</svg>