<?xml version="1.0" encoding="UTF-8"?>
<svg width="180px" height="180px" viewBox="0 0 180 180" version="1.1" xmlns="http://www.w3.org/2000/svg" xmlns:xlink="http://www.w3.org/1999/xlink">
    <title>icons8-linkedin-240</title>
    <g id="Page-1" stroke="none" stroke-width="1" fill="none" fill-rule="evenodd">
        <g id="icons8-linkedin-240" fill-rule="nonzero">
            <path d="M180,155 C180,168.81 168.81,180 155,180 L25,180 C11.195,180 0,168.81 0,155 L0,25 C0,11.19 11.195,0 25,0 L155,0 C168.81,0 180,11.19 180,25 L180,155 Z" id="Path" fill="#0288D1"></path>
            <path d="M30,65 L55,65 L55,150 L30,150 L30,65 Z M42.425,55 L42.285,55 C34.825,55 30,49.44 30,42.495 C30,35.4 34.975,30 42.57,30 C50.175,30 54.86,35.4 55,42.495 C55,49.435 50.175,55 42.425,55 Z M150,150 L125,150 L125,104.505 C125,93.515 118.875,86.015 109.04,86.015 C101.535,86.015 97.475,91.075 95.505,95.965 C94.785,97.715 95,102.555 95,105 L95,150 L70,150 L70,65 L95,65 L95,78.08 C98.605,72.5 104.25,65 118.69,65 C136.58,65 149.995,76.25 149.995,101.37 L150,150 L150,150 Z" id="Shape" fill="#FFFFFF"></path>
        </g>
    </g>
</svg>