<?xml version="1.0" encoding="UTF-8"?>
<svg width="556px" height="256px" viewBox="0 0 556 256" version="1.1" xmlns="http://www.w3.org/2000/svg" xmlns:xlink="http://www.w3.org/1999/xlink">
    <title>icons (2)</title>
    <g id="Page-1" stroke="none" stroke-width="1" fill="none" fill-rule="evenodd">
        <g id="icons-(2)">
            <g id="Group">
                <rect id="Rectangle" fill="#242938" fill-rule="nonzero" x="0" y="0" width="256" height="256" rx="60"></rect>
                <path d="M128.001,146.951 C138.305,146.951 146.657,138.598 146.657,128.295 C146.657,117.992 138.305,109.639 128.001,109.639 C117.698,109.639 109.345,117.992 109.345,128.295 C109.345,138.598 117.698,146.951 128.001,146.951 Z" id="Path" fill="#00D8FF" fill-rule="nonzero"></path>
                <path d="M128.002,90.3633 C153.05,90.3633 176.319,93.9575 193.864,99.9976 C215.003,107.275 228,118.306 228,128.295 C228,138.704 214.226,150.423 191.525,157.944 C174.363,163.63 151.779,166.598 128.002,166.598 C103.624,166.598 80.5389,163.812 63.1834,157.881 C41.2255,150.376 28,138.506 28,128.295 C28,118.387 40.4096,107.441 61.2515,100.175 C78.8617,94.0353 102.705,90.3633 127.998,90.3633 L128.002,90.3633 Z" id="Path" stroke="#00D8FF" stroke-width="8.911"></path>
                <path d="M94.9811,109.438 C107.495,87.7402 122.232,69.3783 136.23,57.1971 C153.094,42.5206 169.144,36.7728 177.796,41.7623 C186.813,46.9623 190.084,64.7496 185.259,88.1712 C181.614,105.879 172.9,126.925 161.021,147.523 C148.842,168.641 134.897,187.247 121.09,199.315 C103.619,214.587 86.7284,220.114 77.8833,215.013 C69.3003,210.067 66.0181,193.846 70.1356,172.161 C73.6145,153.838 82.3451,131.349 94.977,109.438 L94.9811,109.438 Z" id="Path" stroke="#00D8FF" stroke-width="8.911"></path>
                <path d="M95.0123,147.578 C82.4633,125.904 73.9194,103.962 70.3531,85.7517 C66.0602,63.8109 69.0954,47.0355 77.7401,42.0315 C86.7485,36.8163 103.792,42.866 121.674,58.7437 C135.194,70.7479 149.077,88.8052 160.99,109.383 C173.204,130.481 182.358,151.856 185.919,169.844 C190.425,192.608 186.778,210.001 177.941,215.116 C169.367,220.08 153.676,214.825 136.945,200.427 C122.809,188.263 107.685,169.468 95.0123,147.578 Z" id="Path" stroke="#00D8FF" stroke-width="8.911"></path>
            </g>
            <g id="Group" transform="translate(300, 0)" fill-rule="nonzero">
                <g>
                    <rect id="Rectangle" fill="#242938" x="0" y="0" width="256" height="256" rx="60"></rect>
                    <path d="M121.451,28.0537 C121.021,28.0928 119.652,28.2297 118.42,28.3274 C90.0137,30.8885 63.4057,46.216 46.5533,69.7742 C37.1691,82.8729 31.1672,97.7312 28.8993,113.469 C28.0978,118.963 28,120.586 28,128.034 C28,135.483 28.0978,137.106 28.8993,142.599 C34.3343,180.155 61.0596,211.71 97.306,223.401 C103.797,225.493 110.639,226.92 118.42,227.78 C121.451,228.112 134.549,228.112 137.58,227.78 C151.011,226.294 162.389,222.971 173.611,217.242 C175.331,216.363 175.664,216.128 175.429,215.933 C175.273,215.815 167.941,205.981 159.144,194.095 L143.152,172.492 L123.112,142.834 C112.086,126.529 103.015,113.195 102.936,113.195 C102.858,113.176 102.78,126.353 102.741,142.443 C102.682,170.615 102.663,171.749 102.311,172.413 C101.803,173.371 101.412,173.762 100.59,174.193 C99.9648,174.505 99.4174,174.564 96.4653,174.564 L93.0831,174.564 L92.1838,173.997 C91.5973,173.626 91.1672,173.137 90.8739,172.57 L90.4633,171.69 L90.5024,132.492 L90.5611,93.2737 L91.1672,92.5112 C91.48,92.1007 92.1447,91.5728 92.6139,91.3186 C93.4154,90.9276 93.7283,90.8885 97.1105,90.8885 C101.099,90.8885 101.763,91.0449 102.8,92.1789 C103.093,92.4917 113.943,108.836 126.925,128.523 C139.906,148.21 157.658,175.092 166.377,188.288 L182.213,212.277 L183.015,211.749 C190.111,207.135 197.619,200.566 203.562,193.723 C216.211,179.197 224.364,161.485 227.101,142.599 C227.902,137.106 228,135.483 228,128.034 C228,120.586 227.902,118.963 227.101,113.469 C221.666,75.913 194.94,44.3587 158.694,32.6676 C152.301,30.5953 145.498,29.1681 137.873,28.3079 C135.996,28.1124 123.073,27.8973 121.451,28.0537 Z M162.389,88.5425 C163.327,89.0117 164.09,89.911 164.364,90.8494 C164.52,91.3577 164.559,102.228 164.52,126.724 L164.461,161.876 L158.264,152.374 L152.047,142.873 L152.047,117.321 C152.047,100.801 152.125,91.5141 152.242,91.0645 C152.555,89.9697 153.239,89.1095 154.178,88.6011 C154.979,88.1906 155.273,88.1515 158.342,88.1515 C161.236,88.1515 161.744,88.1906 162.389,88.5425 Z" id="Shape" fill="#FFFFFF"></path>
                </g>
            </g>
        </g>
    </g>
</svg>