<?xml version="1.0" encoding="UTF-8"?>
<svg width="556px" height="256px" viewBox="0 0 556 256" version="1.1" xmlns="http://www.w3.org/2000/svg" xmlns:xlink="http://www.w3.org/1999/xlink">
    <title>icons (3)</title>
    <defs>
        <linearGradient x1="26.9444444%" y1="32%" x2="69.7222222%" y2="69.1666667%" id="linearGradient-1">
            <stop stop-color="#32B1C1" offset="0%"></stop>
            <stop stop-color="#14C6B7" offset="100%"></stop>
        </linearGradient>
    </defs>
    <g id="Page-1" stroke="none" stroke-width="1" fill="none" fill-rule="evenodd">
        <g id="icons-(3)">
            <g id="Group">
                <rect id="Rectangle" fill="#242938" fill-rule="nonzero" x="0" y="0" width="256" height="256" rx="60"></rect>
                <path d="M83,110 C88.9991,86.0009 104.001,74 128,74 C164,74 168.5,101 186.5,105.5 C198.501,108.501 209,104.001 218,92 C212.001,115.999 196.999,128 173,128 C137,128 132.5,101 114.5,96.5 C102.499,93.4991 92,97.9991 83,110 Z M38,164 C43.9991,140.001 59.0009,128 83,128 C119,128 123.5,155 141.5,159.5 C153.501,162.501 164,158.001 173,146 C167.001,169.999 151.999,182 128,182 C92,182 87.5,155 69.5,150.5 C57.4991,147.499 47,151.999 38,164 Z" id="Shape" fill="url(#linearGradient-1)"></path>
            </g>
            <g id="Group" transform="translate(300, 0)" fill-rule="nonzero">
                <g>
                    <rect id="Rectangle" fill="#CD6799" x="0" y="0" width="256" height="256" rx="60"></rect>
                    <path d="M200.107,139.163 C193.133,139.199 187.073,140.879 181.998,143.361 C180.136,139.674 178.274,136.388 177.945,133.978 C177.58,131.167 177.142,129.451 177.58,126.092 C178.018,122.733 179.99,117.951 179.953,117.586 C179.917,117.22 179.515,115.505 175.499,115.468 C171.483,115.432 168.015,116.235 167.613,117.294 C167.211,118.352 166.445,120.762 165.934,123.245 C165.24,126.896 157.901,139.93 153.703,146.757 C152.352,144.092 151.184,141.755 150.928,139.893 C150.563,137.082 150.125,135.366 150.563,132.007 C151.001,128.648 152.973,123.865 152.936,123.5 C152.9,123.135 152.498,121.419 148.482,121.383 C144.466,121.346 140.997,122.149 140.596,123.208 C140.194,124.267 139.756,126.75 138.916,129.159 C138.077,131.569 128.329,153.329 125.773,158.951 C124.459,161.835 123.327,164.135 122.524,165.705 C122.524,165.705 122.487,165.815 122.378,165.997 C121.684,167.348 121.282,168.078 121.282,168.078 C121.282,168.078 121.282,168.078 121.282,168.115 C120.735,169.101 120.15,170.013 119.858,170.013 C119.639,170.013 119.238,167.385 119.931,163.807 C121.392,156.249 124.86,144.493 124.824,144.092 C124.824,143.873 125.481,141.828 122.56,140.769 C119.712,139.71 118.69,141.463 118.434,141.463 C118.179,141.463 117.996,142.084 117.996,142.084 C117.996,142.084 121.173,128.867 111.936,128.867 C106.167,128.867 98.2081,135.183 94.2651,140.879 C91.7824,142.23 86.4885,145.114 80.8295,148.217 C78.6755,149.422 76.4484,150.627 74.3673,151.759 C74.2213,151.613 74.0753,151.43 73.9292,151.284 C62.7573,139.345 42.0928,130.912 42.969,114.884 C43.2976,109.042 45.3056,93.7083 82.655,75.0883 C113.396,59.9368 137.858,64.1354 142.093,73.4454 C148.153,86.7349 128.986,111.415 97.2224,114.993 C85.1012,116.344 78.7485,111.671 77.1421,109.919 C75.4626,108.093 75.2071,107.984 74.5864,108.349 C73.5641,108.896 74.2213,110.539 74.5864,111.488 C75.5356,113.971 79.4422,118.352 86.0504,120.506 C91.892,122.405 106.094,123.464 123.29,116.819 C142.531,109.371 157.573,88.6699 153.155,71.3278 C148.738,53.7302 119.53,47.9251 91.892,57.7462 C75.4626,63.5878 57.6459,72.7882 44.831,84.7634 C29.6065,99.0022 27.1968,111.379 28.1826,116.563 C31.724,134.964 57.0983,146.939 67.2479,155.811 C66.7368,156.103 66.2622,156.359 65.8606,156.578 C60.7857,159.097 41.4356,169.21 36.6163,179.908 C31.1399,192.029 37.4926,200.718 41.6912,201.886 C54.7251,205.501 68.1242,199.002 75.3166,188.268 C82.509,177.534 81.6328,163.588 78.3104,157.199 C78.2739,157.126 78.2374,157.053 78.1643,156.98 C79.4787,156.213 80.8295,155.41 82.1439,154.643 C84.7361,153.11 87.2917,151.686 89.4823,150.517 C88.241,153.913 87.3283,157.965 86.8901,163.807 C86.3425,170.671 89.1537,179.579 92.8412,183.084 C94.4842,184.617 96.4192,184.654 97.6605,184.654 C101.969,184.654 103.904,181.076 106.058,176.841 C108.686,171.656 111.06,165.632 111.06,165.632 C111.06,165.632 108.102,181.916 116.134,181.916 C119.055,181.916 122.012,178.119 123.327,176.184 C123.327,176.22 123.327,176.22 123.327,176.22 C123.327,176.22 123.4,176.111 123.546,175.855 C123.838,175.38 124.02,175.088 124.02,175.088 C124.02,175.088 124.02,175.052 124.02,175.015 C125.189,172.971 127.817,168.334 131.724,160.63 C136.762,150.7 141.618,138.287 141.618,138.287 C141.618,138.287 142.056,141.317 143.553,146.355 C144.429,149.313 146.255,152.562 147.715,155.702 C146.547,157.345 145.817,158.257 145.817,158.257 C145.817,158.257 145.817,158.257 145.853,158.294 C144.904,159.535 143.882,160.886 142.75,162.2 C138.77,166.947 134.024,172.387 133.367,173.957 C132.6,175.819 132.783,177.169 134.243,178.265 C135.302,179.068 137.2,179.177 139.135,179.068 C142.713,178.812 145.233,177.936 146.474,177.388 C148.409,176.695 150.673,175.636 152.79,174.066 C156.697,171.182 159.07,167.056 158.851,161.616 C158.741,158.622 157.755,155.629 156.551,152.817 C156.916,152.306 157.244,151.795 157.609,151.284 C163.78,142.266 168.562,132.372 168.562,132.372 C168.562,132.372 169,135.402 170.497,140.441 C171.227,142.996 172.724,145.771 174.039,148.473 C168.234,153.183 164.656,158.659 163.378,162.237 C161.078,168.882 162.867,171.875 166.262,172.569 C167.796,172.898 169.986,172.168 171.593,171.474 C173.637,170.817 176.047,169.685 178.347,168.005 C182.253,165.121 186.014,161.105 185.795,155.665 C185.685,153.183 185.028,150.736 184.115,148.363 C189.044,146.319 195.397,145.187 203.502,146.136 C220.881,148.181 224.313,159.024 223.655,163.588 C222.998,168.151 219.347,170.634 218.142,171.401 C216.938,172.168 216.536,172.423 216.646,172.971 C216.792,173.774 217.376,173.737 218.398,173.591 C219.822,173.336 227.525,169.904 227.854,161.507 C228.402,150.773 218.179,139.053 200.107,139.163 Z M66.0431,184.362 C60.2746,190.641 52.2425,193.015 48.7741,191.007 C45.0501,188.852 46.5105,179.579 53.5933,172.934 C57.9015,168.882 63.4509,165.121 67.1384,162.821 C67.9781,162.31 69.2195,161.58 70.7164,160.667 C70.9719,160.521 71.118,160.448 71.118,160.448 C71.41,160.265 71.7021,160.083 71.9942,159.9 C74.5864,169.393 72.1037,177.754 66.0431,184.362 Z M108.029,155.811 C106.021,160.704 101.823,173.226 99.2669,172.533 C97.0763,171.948 95.7255,162.456 98.8288,153.073 C100.399,148.363 103.721,142.741 105.656,140.55 C108.796,137.045 112.264,135.877 113.104,137.301 C114.163,139.163 109.271,152.744 108.029,155.811 Z M142.677,172.387 C141.837,172.825 141.034,173.117 140.669,172.898 C140.413,172.752 141.034,172.168 141.034,172.168 C141.034,172.168 145.379,167.494 147.095,165.377 C148.08,164.135 149.249,162.675 150.49,161.032 C150.49,161.178 150.49,161.361 150.49,161.507 C150.49,167.093 145.087,170.853 142.677,172.387 Z M169.402,166.289 C168.781,165.851 168.891,164.391 170.972,159.827 C171.775,158.038 173.674,155.045 176.923,152.16 C177.288,153.329 177.544,154.46 177.507,155.519 C177.471,162.566 172.432,165.194 169.402,166.289 Z" id="Shape" fill="#FFFFFF"></path>
                </g>
            </g>
        </g>
    </g>
</svg>